<?xml version="1.0" encoding="UTF-8"?>
<svg width="232px" height="45px" viewBox="0 0 232 45" version="1.1" xmlns="http://www.w3.org/2000/svg" xmlns:xlink="http://www.w3.org/1999/xlink">
    <title>fnn</title>
    <g id="Page-1" stroke="none" stroke-width="1" fill="none" fill-rule="evenodd">
        <g id="fnn" transform="translate(-0.000000, 0.000000)" fill="#2AB7C1" fill-rule="nonzero">
            <path d="M4.937504,19.8633008 C4.937504,19.8633008 39.103884,-7.56206922 87.215584,2.03869078 C87.215584,2.03869078 58.674584,15.5839008 4.937504,19.8633008 Z" id="Path"></path>
            <path d="M1.42108547e-14,24.2353008 C1.42108547e-14,24.2353008 4.372084,36.5339008 15.302284,44.0136008 C15.302284,44.0136008 14.652184,35.3896008 32.102784,35.2222008 C46.653784,34.9833008 61.131084,37.3114008 74.853084,42.0971008 C80.250484,37.5187008 84.557384,31.8203008 87.466484,25.4086008 C90.375584,18.9969008 91.814884,12.0302008 91.681884,5.00586078 C91.681884,5.00586078 56.441384,20.7559008 1.42108547e-14,24.2353008 Z" id="Path"></path>
            <path d="M129.835711,5.68449782 C129.835711,7.04718583 129.36822,8.13136827 128.433237,8.93704512 C127.5082,9.73277535 126.165405,10.1803736 124.404852,10.2798399 L124.404852,11.4286754 L121.704343,11.4286754 L121.704343,10.2798399 C119.94379,10.1505337 118.596022,9.69298884 117.661039,8.90720524 C116.736002,8.12142164 116.273484,7.04718583 116.273484,5.68449782 C116.273484,4.3218098 116.736002,3.24757399 117.661039,2.46179039 C118.586075,1.66606016 119.933843,1.20354197 121.704343,1.07423581 L121.704343,0 L124.404852,0 L124.404852,1.07423581 C126.165405,1.19359534 127.5082,1.65114022 128.433237,2.44687045 C129.36822,3.23265405 129.835711,4.31186317 129.835711,5.68449782 Z M124.404852,7.98216885 C125.290102,7.88270257 125.936633,7.6439835 126.344445,7.26601164 C126.762203,6.88803979 126.971082,6.3558952 126.971082,5.66957787 C126.971082,4.98326055 126.75723,4.45608928 126.329525,4.08806405 C125.911766,3.72003882 125.270209,3.48629306 124.404852,3.38682678 L124.404852,7.98216885 Z M119.138113,5.68449782 C119.138113,6.36086851 119.351965,6.88306647 119.77967,7.2510917 C120.207375,7.61911693 120.848933,7.857836 121.704343,7.96724891 L121.704343,3.38682678 C120.809146,3.48629306 120.157642,3.72003882 119.74983,4.08806405 C119.342019,4.45608928 119.138113,4.98823387 119.138113,5.68449782 Z M136.651804,11.1451965 C135.547728,11.1451965 134.553065,10.9114508 133.667815,10.4439592 C132.792512,9.97646773 132.101221,9.32993692 131.593943,8.50436681 C131.096612,7.6787967 130.847946,6.748787 130.847946,5.7143377 C130.847946,4.6798884 131.096612,3.7498787 131.593943,2.92430859 C132.101221,2.09873848 132.792512,1.45220767 133.667815,0.984716157 C134.553065,0.517224648 135.547728,0.283478894 136.651804,0.283478894 C137.755879,0.283478894 138.745569,0.517224648 139.620872,0.984716157 C140.506122,1.45220767 141.197413,2.09873848 141.694744,2.92430859 C142.202022,3.7498787 142.455661,4.6798884 142.455661,5.7143377 C142.455661,6.748787 142.202022,7.6787967 141.694744,8.50436681 C141.197413,9.32993692 140.506122,9.97646773 139.620872,10.4439592 C138.745569,10.9114508 137.755879,11.1451965 136.651804,11.1451965 Z M136.651804,8.69832606 C137.178975,8.69832606 137.656413,8.57399321 138.084118,8.32532751 C138.511823,8.07666181 138.850008,7.72852984 139.098674,7.28093159 C139.34734,6.82338671 139.471673,6.30118874 139.471673,5.7143377 C139.471673,5.12748666 139.34734,4.61026201 139.098674,4.16266376 C138.850008,3.70511887 138.511823,3.35201359 138.084118,3.10334789 C137.656413,2.85468219 137.178975,2.73034934 136.651804,2.73034934 C136.124632,2.73034934 135.647194,2.85468219 135.219489,3.10334789 C134.791784,3.35201359 134.453599,3.70511887 134.204933,4.16266376 C133.956267,4.61026201 133.831935,5.12748666 133.831935,5.7143377 C133.831935,6.30118874 133.956267,6.82338671 134.204933,7.28093159 C134.453599,7.72852984 134.791784,8.07666181 135.219489,8.32532751 C135.647194,8.57399321 136.124632,8.69832606 136.651804,8.69832606 Z M154.121066,0.492358079 L154.121066,10.9363173 L151.166918,10.9363173 L151.166918,6.86317322 L147.138533,6.86317322 L147.138533,10.9363173 L144.184385,10.9363173 L144.184385,0.492358079 L147.138533,0.492358079 L147.138533,4.41630277 L151.166918,4.41630277 L151.166918,0.492358079 L154.121066,0.492358079 Z M167.70501,8.59388646 L167.70501,13.0400291 L165.0045,13.0400291 L165.0045,10.9363173 L158.320367,10.9363173 L158.320367,13.0400291 L155.604937,13.0400291 L155.604937,8.59388646 L155.977936,8.59388646 C156.594627,8.58393984 157.027305,8.16120815 157.275971,7.32569141 C157.534583,6.49017467 157.693729,5.2866327 157.753409,3.7150655 L157.872768,0.492358079 L166.287615,0.492358079 L166.287615,8.59388646 L167.70501,8.59388646 Z M160.334559,3.96870451 C160.294772,5.08272683 160.205253,6.02765648 160.066,6.80349345 C159.926747,7.57933042 159.712894,8.17612809 159.424442,8.59388646 L163.378227,8.59388646 L163.378227,2.83478894 L160.379319,2.83478894 L160.334559,3.96870451 Z M126.911402,15.4122999 L126.911402,25.8562591 L123.957254,25.8562591 L123.957254,21.783115 L119.92887,21.783115 L119.92887,25.8562591 L116.974721,25.8562591 L116.974721,15.4122999 L119.92887,15.4122999 L119.92887,19.3362445 L123.957254,19.3362445 L123.957254,15.4122999 L126.911402,15.4122999 Z M139.226488,15.4122999 L134.899705,23.4839884 C134.44216,24.349345 133.880176,25.0058224 133.213752,25.4534207 C132.557274,25.9010189 131.836144,26.124818 131.05036,26.124818 C130.473456,26.124818 129.856765,25.9955119 129.200287,25.7368996 L129.901525,23.5585881 C130.309336,23.6779476 130.657468,23.7376274 130.945921,23.7376274 C131.234373,23.7376274 131.488012,23.6729743 131.706838,23.5436681 C131.93561,23.414362 132.144489,23.2104561 132.333475,22.9319505 L128.275251,15.4122999 L131.393519,15.4122999 L133.825469,20.4552402 L136.346939,15.4122999 L139.226488,15.4122999 Z M145.097651,15.4122999 C146.042581,15.4122999 146.863178,15.5714459 147.559441,15.889738 C148.255705,16.1980835 148.792823,16.6456817 149.170795,17.2325328 C149.548767,17.8094372 149.737753,18.4907812 149.737753,19.2765648 C149.737753,20.0623484 149.548767,20.7436924 149.170795,21.3205968 C148.792823,21.8975012 148.255705,22.3450995 147.559441,22.6633916 C146.863178,22.971737 146.042581,23.1259098 145.097651,23.1259098 L143.277418,23.1259098 L143.277418,25.8562591 L140.32327,25.8562591 L140.32327,15.4122999 L145.097651,15.4122999 Z M144.918612,20.7983988 C145.525356,20.7983988 145.982901,20.6690927 146.291246,20.4104803 C146.599592,20.1419214 146.753765,19.7639495 146.753765,19.2765648 C146.753765,18.78918 146.599592,18.4112082 146.291246,18.1426492 C145.982901,17.8740902 145.525356,17.7398108 144.918612,17.7398108 L143.277418,17.7398108 L143.277418,20.7983988 L144.918612,20.7983988 Z M156.458689,26.0651383 C155.36456,26.0651383 154.379844,25.8363658 153.504541,25.378821 C152.639184,24.9113295 151.95784,24.2647986 151.460509,23.4392285 C150.963178,22.6136584 150.714512,21.6786754 150.714512,20.6342795 C150.714512,19.5898836 150.963178,18.6549005 151.460509,17.8293304 C151.95784,17.0037603 152.639184,16.3622028 153.504541,15.9046579 C154.379844,15.4371664 155.36456,15.2034207 156.458689,15.2034207 C157.413566,15.2034207 158.273949,15.3725133 159.039839,15.7106987 C159.80573,16.048884 160.442314,16.5362688 160.949592,17.172853 L159.069679,18.8737263 C158.393309,18.0581029 157.572712,17.6502911 156.607889,17.6502911 C156.040931,17.6502911 155.533653,17.774624 155.086055,18.0232897 C154.648403,18.2719554 154.305244,18.6250607 154.056579,19.0826055 C153.81786,19.5302038 153.6985,20.0474284 153.6985,20.6342795 C153.6985,21.2211305 153.81786,21.7433285 154.056579,22.2008734 C154.305244,22.6484716 154.648403,22.9966036 155.086055,23.2452693 C155.533653,23.493935 156.040931,23.6182678 156.607889,23.6182678 C157.572712,23.6182678 158.393309,23.2104561 159.069679,22.3948326 L160.949592,24.095706 C160.442314,24.7322902 159.80573,25.2196749 159.039839,25.5578603 C158.273949,25.8960456 157.413566,26.0651383 156.458689,26.0651383 Z M172.180329,15.4122999 L167.853546,23.4839884 C167.396001,24.349345 166.834017,25.0058224 166.167593,25.4534207 C165.511115,25.9010189 164.789985,26.124818 164.004201,26.124818 C163.427297,26.124818 162.810606,25.9955119 162.154129,25.7368996 L162.855366,23.5585881 C163.263178,23.6779476 163.611309,23.7376274 163.899762,23.7376274 C164.188214,23.7376274 164.441853,23.6729743 164.660679,23.5436681 C164.889451,23.414362 165.09833,23.2104561 165.287316,22.9319505 L161.229092,15.4122999 L164.34736,15.4122999 L166.77931,20.4552402 L169.300781,15.4122999 L172.180329,15.4122999 Z M182.815761,15.4122999 L182.815761,25.8562591 L179.906373,25.8562591 L179.906373,17.7547307 L176.907464,17.7547307 L176.847785,19.4556041 C176.798051,20.9475983 176.673719,22.1610869 176.474786,23.0960699 C176.2858,24.0310529 175.957561,24.7571567 175.49007,25.2743814 C175.022578,25.7816594 174.361128,26.0352984 173.505718,26.0352984 C173.107852,26.0352984 172.660254,25.9756186 172.162923,25.8562591 L172.327042,23.4392285 C172.456348,23.4690684 172.590628,23.4839884 172.729881,23.4839884 C173.117799,23.4839884 173.416198,23.3298156 173.625077,23.0214702 C173.833956,22.7131247 173.983156,22.2854197 174.072675,21.7383552 C174.162195,21.181344 174.221875,20.4602135 174.251715,19.5749636 L174.400914,15.4122999 L182.815761,15.4122999 Z M193.613986,17.7547307 L190.421119,17.7547307 L190.421119,25.8562591 L187.51173,25.8562591 L187.51173,17.7547307 L184.303943,17.7547307 L184.303943,15.4122999 L193.613986,15.4122999 L193.613986,17.7547307 Z M201.806692,23.827147 L197.390389,23.827147 L196.569792,25.8562591 L193.555964,25.8562591 L198.166226,15.4122999 L201.075615,15.4122999 L205.700797,25.8562591 L202.627289,25.8562591 L201.806692,23.827147 Z M200.941335,21.6488355 L199.598541,18.3067686 L198.255746,21.6488355 L200.941335,21.6488355 Z M216.983588,15.4122999 L216.983588,25.8562591 L214.02944,25.8562591 L214.02944,21.783115 L210.001056,21.783115 L210.001056,25.8562591 L207.046907,25.8562591 L207.046907,15.4122999 L210.001056,15.4122999 L210.001056,19.3362445 L214.02944,19.3362445 L214.02944,15.4122999 L216.983588,15.4122999 Z M226.583079,23.827147 L222.166776,23.827147 L221.346179,25.8562591 L218.332351,25.8562591 L222.942613,15.4122999 L225.852002,15.4122999 L230.477184,25.8562591 L227.403676,25.8562591 L226.583079,23.827147 Z M225.717722,21.6488355 L224.374927,18.3067686 L223.032133,21.6488355 L225.717722,21.6488355 Z M126.911402,30.3322416 L126.911402,40.7762009 L123.957254,40.7762009 L123.957254,36.7030568 L119.92887,36.7030568 L119.92887,40.7762009 L116.974721,40.7762009 L116.974721,30.3322416 L119.92887,30.3322416 L119.92887,34.2561863 L123.957254,34.2561863 L123.957254,30.3322416 L126.911402,30.3322416 Z M136.511059,38.7470888 L132.094756,38.7470888 L131.274159,40.7762009 L128.260331,40.7762009 L132.870593,30.3322416 L135.779982,30.3322416 L140.405164,40.7762009 L137.331656,40.7762009 L136.511059,38.7470888 Z M135.645702,36.5687773 L134.302907,33.2267103 L132.960113,36.5687773 L135.645702,36.5687773 Z M148.211443,35.3453421 C148.788347,35.5641679 149.240919,35.8924066 149.569158,36.3300582 C149.897396,36.7677098 150.061516,37.2700146 150.061516,37.8369723 C150.061516,38.4835032 149.84269,39.0454876 149.405038,39.5229258 C148.967387,40.0003639 148.375562,40.3683891 147.629565,40.6270015 C146.883568,40.8756672 146.062971,41 145.167775,41 C144.461564,41 143.740434,40.9154537 143.004383,40.746361 C142.278279,40.5772683 141.582015,40.3236293 140.915591,39.985444 L141.795868,37.926492 C142.263359,38.1652111 142.760691,38.3492237 143.287862,38.4785298 C143.82498,38.5978894 144.342205,38.6575691 144.839536,38.6575691 C145.496014,38.6575691 146.033131,38.5531295 146.45089,38.3442504 C146.868648,38.1254246 147.077527,37.8220524 147.077527,37.4341339 C147.077527,37.1257885 146.948221,36.897016 146.689609,36.7478166 C146.430997,36.5986172 146.082865,36.5240175 145.645213,36.5240175 L142.974543,36.5240175 L142.974543,34.3606259 L145.406494,34.3606259 C145.804359,34.3606259 146.112704,34.2810529 146.33153,34.1219068 C146.550356,33.9627608 146.659769,33.7489083 146.659769,33.4803493 C146.659769,33.142164 146.490676,32.8835517 146.152491,32.7045124 C145.814306,32.5155264 145.376654,32.4210335 144.839536,32.4210335 C144.401884,32.4210335 143.939366,32.4856866 143.451981,32.6149927 C142.964597,32.7343523 142.502079,32.9084182 142.064427,33.1371907 L141.19907,30.8991994 C142.313093,30.3620815 143.536528,30.0935226 144.869376,30.0935226 C145.724786,30.0935226 146.515543,30.2178554 147.241647,30.4665211 C147.977697,30.7052402 148.559575,31.0533721 148.98728,31.510917 C149.424932,31.9684619 149.643757,32.5105531 149.643757,33.1371907 C149.643757,33.6245754 149.514451,34.0622271 149.255839,34.4501456 C149.007173,34.8281174 148.659041,35.1265163 148.211443,35.3453421 Z M159.014475,38.7470888 L154.598173,38.7470888 L153.777576,40.7762009 L150.763748,40.7762009 L155.37401,30.3322416 L158.283398,30.3322416 L162.90858,40.7762009 L159.835072,40.7762009 L159.014475,38.7470888 Z M158.149119,36.5687773 L156.806324,33.2267103 L155.463529,36.5687773 L158.149119,36.5687773 Z M169.029072,30.3322416 C169.974002,30.3322416 170.794598,30.4913877 171.490862,30.8096798 C172.187126,31.1180252 172.724244,31.5656235 173.102216,32.1524745 C173.480188,32.7293789 173.669174,33.410723 173.669174,34.1965066 C173.669174,34.9822902 173.480188,35.6636342 173.102216,36.2405386 C172.724244,36.817443 172.187126,37.2650412 171.490862,37.5833333 C170.794598,37.8916788 169.974002,38.0458515 169.029072,38.0458515 L167.208839,38.0458515 L167.208839,40.7762009 L164.254691,40.7762009 L164.254691,30.3322416 L169.029072,30.3322416 Z M168.850033,35.7183406 C169.456777,35.7183406 169.914322,35.5890344 170.222667,35.3304221 C170.531013,35.0618632 170.685185,34.6838913 170.685185,34.1965066 C170.685185,33.7091218 170.531013,33.3311499 170.222667,33.062591 C169.914322,32.794032 169.456777,32.6597525 168.850033,32.6597525 L167.208839,32.6597525 L167.208839,35.7183406 L168.850033,35.7183406 Z M175.156692,30.3322416 L183.884858,30.3322416 L183.884858,32.6149927 L178.066081,32.6149927 L178.066081,34.3009461 L180.76659,34.3009461 C182.029812,34.3009461 182.999608,34.5695051 183.675979,35.106623 C184.352349,35.6437409 184.690535,36.4146046 184.690535,37.419214 C184.690535,38.4735565 184.312563,39.2991266 183.556619,39.8959243 C182.800675,40.4827754 181.74136,40.7762009 180.378672,40.7762009 L175.156692,40.7762009 L175.156692,30.3322416 Z M180.184712,38.6575691 C180.682044,38.6575691 181.060016,38.5581029 181.318628,38.3591703 C181.57724,38.1602377 181.706546,37.8767589 181.706546,37.5087336 C181.706546,36.7726832 181.199268,36.4046579 180.184712,36.4046579 L178.066081,36.4046579 L178.066081,38.6575691 L180.184712,38.6575691 Z M193.454509,38.7470888 L189.038206,38.7470888 L188.217609,40.7762009 L185.203781,40.7762009 L189.814043,30.3322416 L192.723431,30.3322416 L197.348613,40.7762009 L194.275105,40.7762009 L193.454509,38.7470888 Z M192.589152,36.5687773 L191.246357,33.2267103 L189.903562,36.5687773 L192.589152,36.5687773 Z M207.079565,38.4934498 L207.079565,40.7762009 L198.694558,40.7762009 L198.694558,30.3322416 L206.885606,30.3322416 L206.885606,32.6149927 L201.618867,32.6149927 L201.618867,34.3755459 L206.258968,34.3755459 L206.258968,36.5836972 L201.618867,36.5836972 L201.618867,38.4934498 L207.079565,38.4934498 Z M216.52107,35.3155022 C217.137761,35.5144347 217.605253,35.8227802 217.923545,36.2405386 C218.251783,36.6582969 218.415903,37.1755216 218.415903,37.7922125 C218.415903,38.7172489 218.052851,39.4483261 217.326747,39.985444 C216.61059,40.5126152 215.59106,40.7762009 214.268159,40.7762009 L208.9119,40.7762009 L208.9119,30.3322416 L213.98468,30.3322416 C215.237955,30.3322416 216.207751,30.5709607 216.894069,31.0483988 C217.590333,31.5158903 217.938465,32.1823144 217.938465,33.047671 C217.938465,33.5549491 217.814132,34.0025473 217.565466,34.3904658 C217.326747,34.7783843 216.978615,35.0867297 216.52107,35.3155022 Z M211.821288,34.5098253 L213.701201,34.5098253 C214.536718,34.5098253 214.954476,34.1666667 214.954476,33.4803493 C214.954476,32.794032 214.536718,32.4508734 213.701201,32.4508734 L211.821288,32.4508734 L211.821288,34.5098253 Z M214.148799,38.6575691 C215.004209,38.6575691 215.431914,38.2945172 215.431914,37.5684134 C215.431914,36.8622028 215.004209,36.5090975 214.148799,36.5090975 L211.821288,36.5090975 L211.821288,38.6575691 L214.148799,38.6575691 Z M227.369857,38.7470888 L222.953554,38.7470888 L222.132958,40.7762009 L219.119129,40.7762009 L223.729391,30.3322416 L226.63878,30.3322416 L231.263962,40.7762009 L228.190454,40.7762009 L227.369857,38.7470888 Z M226.5045,36.5687773 L225.161706,33.2267103 L223.818911,36.5687773 L226.5045,36.5687773 Z" id="Shape"></path>
        </g>
    </g>
</svg>