<?xml version="1.0" encoding="UTF-8"?>
<svg width="483px" height="239px" viewBox="0 0 483 239" version="1.1" xmlns="http://www.w3.org/2000/svg" xmlns:xlink="http://www.w3.org/1999/xlink">
    <title>undp</title>
    <g id="Page-1" stroke="none" stroke-width="1" fill="none" fill-rule="evenodd">
        <g id="undp" transform="translate(0.312000, 0.551000)" fill-rule="nonzero">
            <rect id="Rectangle" fill="#0063AC" x="244.813" y="0.195" width="115.125" height="115.133"></rect>
            <path d="M274.008,19.058 L274.008,64.343 C274.008,88.304 285.863,97.195 301.617,97.195 C318.258,97.195 330.699,87.593 330.699,63.996 L330.699,19.058 L320.665,19.058 L320.665,64.679 C320.665,81.593 313.251,89.101 301.954,89.101 C291.688,89.101 284.059,81.792 284.059,64.679 L284.059,19.058 L274.008,19.058 Z" id="Path" fill="#FFFFFF"></path>
            <rect id="Rectangle" fill="#0063AC" x="367.04" y="0.195" width="115.125" height="115.133"></rect>
            <path d="M405.118,96.219 C405.118,96.219 405.001,41.356 404.423,31.657 L404.775,31.548 C408.556,39.868 443.439,96.22 443.439,96.22 L453.478,96.22 L453.478,19.337 L444.142,19.337 C444.142,19.337 444.361,72.833 445.267,83.11 L444.915,83.212 C441.376,75.239 406.72,19.337 406.72,19.337 L395.763,19.337 L395.763,96.22 L405.118,96.22 L405.118,96.219 Z" id="Path" fill="#FFFFFF"></path>
            <rect id="Rectangle" fill="#0063AC" x="367.04" y="122.398" width="115.125" height="115.125"></rect>
            <path d="M444.055,147.125 C439.473,143.016 432.305,140.727 422.481,140.727 C414.508,140.727 408.231,141.422 403.438,142.332 L403.438,218.187 L413.364,218.187 L413.364,187.39 C415.661,187.956 418.384,188.066 421.356,188.066 C431.055,188.066 439.594,185.179 444.836,179.628 C448.836,175.612 450.883,170.136 450.883,163.194 C450.883,156.336 448.262,150.761 444.055,147.125" id="Path" fill="#FFFFFF"></path>
            <path d="M421.586,180.539 C418.383,180.539 415.531,180.305 413.363,179.746 L413.363,149.867 C415.078,149.523 418.383,149.07 422.711,149.07 C433.66,149.07 440.859,153.945 440.859,164.234 C440.86,174.601 433.661,180.539 421.586,180.539" id="Path" fill="#0063AC"></path>
            <rect id="Rectangle" fill="#0063AC" x="244.688" y="122.511" width="115.133" height="115.129"></rect>
            <path d="M325.641,150.094 C318.911,143.824 308.774,140.614 294.512,140.614 C286.633,140.614 279.469,141.305 273.289,142.227 L273.289,217.844 C278.422,218.532 284.246,218.735 291.43,218.735 C306.36,218.735 318.227,214.895 325.547,207.7 C332.594,200.641 336.582,190.348 336.582,177.813 C336.583,165.379 332.594,156.367 325.641,150.094" id="Path" fill="#FFFFFF"></path>
            <path d="M293.368,210.785 C289.477,210.785 285.841,210.785 283.337,210.312 L283.337,149.523 C285.962,148.961 289.845,148.511 294.962,148.511 C315.946,148.511 326.228,159.804 326.103,178.151 C326.102,198.906 314.575,210.887 293.368,210.785" id="Path" fill="#0063AC"></path>
            <rect id="Rectangle" fill="#0063AC" x="0" y="1.13686838e-13" width="237.469" height="237.523"></rect>
            <path d="M203.707,123.668 C200.383,128.371 196.367,132.785 193.289,137.594 C193.633,133.793 194.086,129.11 192.594,125.496 C190.039,117.746 187.789,109.871 187.078,101.355 L187.148,98.097 C189.082,106.796 197.632,112.785 197.086,122.535 C197.281,124.906 196.547,126.894 196.113,128.984 L196.265,129.136 L196.652,128.702 C197.914,123.925 198.547,118.886 200.515,114.421 C203.32,108.007 206.804,101.523 205.382,93.769 C209.648,102.914 208.371,115.121 203.707,123.668" id="Path" fill="#FFFFFF"></path>
            <path d="M198.445,74.395 C204.058,81.993 205.297,94.079 201.199,102.782 C199.699,106.481 198.609,110.411 198.015,114.493 C197.718,113.798 197.66,112.848 197.413,112.055 C195.186,103.543 187.124,97.469 183.796,89.43 C182.757,86.797 181.866,84.082 181.366,81.227 C184.897,87.774 193.632,91.168 196.018,98.383 C196.998,100.223 196.944,102.492 197.53,104.457 C197.659,104.457 197.788,104.363 197.788,104.238 C196.745,96.797 197.054,89.011 198.077,81.676 C198.015,77.688 197.632,73.828 195.413,70.754 C196.836,71.578 197.484,73.164 198.445,74.395" id="Path" fill="#FFFFFF"></path>
            <path d="M194.5,72.941 C195.977,79.589 193.84,86.074 195.195,92.785 L195.129,92.84 C191.516,85.731 183.832,82.375 178.547,76.676 C175.469,73.289 174.149,69.168 173.399,64.805 C176.43,72.114 184.587,73.731 189.274,79.867 C190.852,81.289 191.368,83.258 192.376,84.879 L192.54,84.707 C189.837,78.953 188.923,72.461 187.079,66.328 C186.11,63.668 184.243,61.043 181.735,59.363 C187.891,60.629 193.23,67.051 194.5,72.941" id="Path" fill="#FFFFFF"></path>
            <path d="M178.043,57.684 C182.688,61.829 184.781,67.215 186.152,72.786 L186.902,74.552 C180.164,69.72 174.058,63.193 169.75,56.329 L164.492,51.005 C169.117,52.965 174.094,54.137 178.043,57.684" id="Path" fill="#FFFFFF"></path>
            <path d="M90.008,52.527 C98.774,48.203 108.363,45.886 118.797,45.699 C142.656,45.73 165.445,59.738 175.828,81.828 C182.406,94.519 184.277,111.996 180.012,126.324 C175.672,143.254 161.43,160.379 144.844,167.344 C126.18,176.489 99.649,174.203 83.008,162.27 C59.875,146.43 50.414,119.105 57.406,92.141 C61.652,76.133 74.402,59.969 90.008,52.527" id="Path" fill="#FFFFFF"></path>
            <path d="M71.707,51.902 C67.055,55.98 63.828,61.14 60.383,65.949 C57.281,69.773 53.332,72.304 49.805,75.597 C51.711,71.675 51.782,66.988 54.469,63.386 C58.301,56.699 65.391,54.363 71.707,51.902" id="Path" fill="#FFFFFF"></path>
            <path d="M46.273,66.098 C48.515,63.286 51.398,61.325 54.621,60.508 C48.375,64.801 48.766,72.528 46.773,78.957 C46.136,81.324 45.035,83.519 44.496,85.941 L44.664,86.074 C45.711,83.312 47.539,80.73 49.805,78.48 C54.274,74.367 60.86,71.804 63.047,65.722 C62.953,74.175 55.887,80.808 49.156,85.566 C46.351,88.004 43.676,90.793 42.152,93.914 C41.992,91.797 42.476,89.648 42.316,87.371 C41.586,79.996 41.051,71.574 46.273,66.098" id="Path" fill="#FFFFFF"></path>
            <path d="M33.594,91.328 C33.391,83.855 36.492,77.754 40.875,72.184 C40.98,72.118 41.086,71.993 41.238,72.016 C36.433,79.328 40.406,88.539 40.195,96.864 L39.562,105.376 C39.64,105.435 39.64,105.688 39.874,105.595 C40.155,104.657 40.226,103.638 40.405,102.654 C41.546,95.783 47.499,90.912 52.721,86.166 C53.842,84.943 54.795,83.662 55.381,82.225 C54.971,85.631 53.889,89.08 52.467,92.248 C48.42,100.158 40.912,106.639 39.561,115.693 C38.898,107.027 32.969,100.539 33.594,91.328" id="Path" fill="#FFFFFF"></path>
            <path d="M29.93,101.957 C30.469,99.621 30.899,97.207 31.907,95.062 C29.966,104.941 36.618,112.054 38.798,120.632 C39.712,123.82 39.946,127.277 41.239,130.28 C41.368,130.346 41.469,130.214 41.555,130.12 C38.297,121.011 42.977,112.558 47.688,105.436 C48.829,103.502 49.5,101.35 50.063,99.147 C50.563,103.256 49.536,108.01 48.922,112.276 C47.789,117.717 46.078,122.87 44.594,128.167 C43.606,131.448 43.864,135.183 44.375,138.632 L43.898,138.253 C40.429,131.894 33.609,126.929 31.593,119.968 C29.906,114.426 28.797,108.012 29.93,101.957" id="Path" fill="#FFFFFF"></path>
            <path d="M29.617,121.262 C30.383,131.742 41.648,137.278 46.875,145.946 C48.109,147.723 49.184,149.68 50.824,151.161 C50.566,150.059 49.531,149.106 49.148,147.97 C47.308,144.333 46.652,140.001 47.093,135.599 C47.609,130.251 49.843,125.279 48.995,119.646 C53.577,129.556 52.186,141.904 54.749,152.623 C55.417,154.967 56.776,157.053 57.663,159.303 C48.225,152.873 35.378,146.764 31.194,134.998 C29.43,130.941 29.242,125.914 29.617,121.262" id="Path" fill="#FFFFFF"></path>
            <path d="M35.25,145.309 C40.512,157.207 53.664,158.192 62.508,165.438 C64.113,166.864 65.844,168.094 67.664,168.958 L67.758,168.856 C65.719,167.02 63.391,164.934 61.961,162.559 C56.805,155.379 58.617,145.309 54.75,137.59 C58.266,141.793 61.461,146.156 63.586,150.942 C66.75,158.731 67.945,167.524 75.27,173.415 C67.336,170.821 58.079,171.552 51.11,166.677 C43.488,161.992 36.68,154.047 35.25,145.309" id="Path" fill="#FFFFFF"></path>
            <path d="M48.766,167.496 C57.176,177.09 70.961,173.887 82.184,176.387 C83.758,176.617 85.227,177.242 86.907,176.989 C85.571,176.137 83.712,176.235 82.251,175.473 C73.454,172.364 72.153,162.84 67.372,156.426 C73.489,160.477 78.602,165.942 84.247,171.231 C88.302,174.77 93.157,176.411 98.286,177.469 C97.063,177.907 95.438,177.781 94.114,178.129 C84.907,180.414 74.649,184.113 64.868,180.781 C58.516,178.789 51.961,173.766 48.766,167.496" id="Path" fill="#FFFFFF"></path>
            <path d="M163.137,189.832 C153.645,193.383 143.731,189.676 136.325,184.051 C133.329,182.141 130.673,179.391 126.774,179.656 C125.379,179.617 124.008,179.683 122.821,180.035 C130.032,183.387 136.723,188.004 142.852,193.922 C141.809,195.09 140.485,196.195 139.219,197.211 C133.328,190.863 126.774,184.734 119.461,181.168 C118.047,181.352 116.672,182.211 115.391,182.895 C109.43,186.668 103.539,191.52 99.125,197.434 L95.313,194.301 C101.391,188.168 108.11,183.387 115.438,179.961 C108.235,177.688 103.524,183.723 98.051,186.801 C91.653,191.262 82.477,193.352 74.742,190.281 C70.594,188.703 66.594,186.386 63.578,182.617 C69.664,186.801 78.703,187.246 85.605,184.527 C94.882,180.504 104.484,175.414 115.656,177.839 C117.41,177.878 119.117,179.616 120.765,178.132 C129.054,175.976 138.445,177.468 145.601,181.261 L152.968,184.202 C159.812,186.733 168.671,186.042 174.527,181.854 C171.523,185.617 167.406,188.316 163.137,189.832" id="Path" fill="#FFFFFF"></path>
            <path d="M173.328,180.031 C162.644,184.051 151.933,179.121 141.715,177.465 L139.75,177.207 L139.75,177.156 C144.625,176.047 149.367,174.586 153.266,171.066 C158.989,165.562 164.078,159.906 170.45,155.562 C165.727,161.613 165.235,170.214 157.442,174.105 C155.501,175.371 153.079,175.589 151.079,176.554 C153.927,176.616 156.524,175.589 159.341,175.308 C169.79,173.675 181.743,175.347 189.056,166.449 C186.328,172.645 179.539,177.844 173.328,180.031" id="Path" fill="#FFFFFF"></path>
            <path d="M179.234,169.176 C173.804,170.633 167.984,171.106 162.687,172.906 C171.644,165.222 171.148,153.324 177.125,144.269 C179.016,141.699 180.598,139.003 182.82,136.581 C179.191,143.89 180.758,153.347 176.586,160.44 C174.973,163.237 172.664,165.971 170.121,168.198 C170.961,168.151 171.691,167.44 172.406,166.96 C179.211,160.187 188.078,158.284 195.414,152.776 C198.359,150.432 201.059,147.37 202.352,144.053 C200.953,155.277 189.785,165.816 179.234,169.176" id="Path" fill="#FFFFFF"></path>
            <path d="M192.691,150.027 C188.484,152.777 184.211,155.332 180.164,158.465 L180.164,158.106 C186.375,147.786 183.328,133.629 187.148,122.309 L188.578,118.512 C187.789,125.563 190.851,131.547 190.648,138.633 C190.414,142.91 189.023,146.707 186.773,150.117 L187.148,150.117 C190.187,146.14 192.57,141.902 196.117,138.094 C201.621,132.785 207.219,127.344 207.949,119.969 C209.813,132.273 202.914,143.055 192.691,150.027" id="Path" fill="#FFFFFF"></path>
            <path d="M145.066,149.211 L145.507,148.598 C147.409,147.118 149.46,145.715 151.14,143.883 L151.37,143.883 C150.975,143.762 150.499,144.141 150.069,143.953 C149.167,143.543 149.022,142.746 149.022,141.832 L145.131,137.809 L144.92,137.211 C144.623,137.973 144.045,138.445 143.49,139.004 C143.517,139.52 143.33,140.285 143.939,140.625 C145.201,141.039 146.845,141.867 147.127,143.348 C146.615,144.746 143.959,146.008 145.6,147.528 C146.133,148.281 144.852,148.566 145.066,149.211" id="Path" fill="#0063AC"></path>
            <path d="M122.437,97.844 C123.171,98.25 123.574,97.5 124.195,97.34 C125.07,97.434 125.757,98.199 126.297,98.762 C126.859,99.012 127.406,98.668 127.91,98.481 C128.265,95.852 131.555,96.231 132.531,93.77 L131.929,93.993 C131.679,93.638 131.05,93.794 131.085,93.231 C131.616,92.708 132.315,91.919 132.976,91.708 C130.14,89.927 127.195,88.411 123.96,87.599 C122.694,87.302 121.358,87.271 120.155,86.833 C120.764,88.638 120.233,91.29 120.608,93.388 L122.87,94.138 C123.554,93.036 125.003,92.826 125.632,91.771 C126.038,91.423 126.515,91.771 126.843,92.15 C126.948,93.002 126.714,93.857 126.456,94.677 C125.602,96.391 123.574,96.598 122.437,97.844" id="Path" fill="#0063AC"></path>
            <path d="M156.152,119.105 C154.816,123.351 153.265,127.492 150.601,131.195 C149.566,132.523 148.539,134.367 147.199,135.054 L150.07,137.589 C150.222,137.433 150.132,137.175 150.175,136.96 C150.175,136.581 150.351,136.136 150.827,136.19 C152.214,136.163 152.241,137.651 153.038,138.413 C152.87,139.616 153.925,140.565 153.573,141.675 C161.553,133.253 165.546,122.941 166.276,111.515 L166.71,111.011 C163.862,111.288 160.858,111.093 157.921,111.136 L157.218,110.921 C157.417,112.847 156.902,114.714 156.784,116.612 L157.811,117.745 C158.116,118.19 158.006,118.858 157.6,119.198 C157.148,119.496 156.586,119.465 156.152,119.105" id="Path" fill="#0063AC"></path>
            <path d="M148.539,91.098 C147.477,89.078 145.769,87.274 144.305,85.469 L144.153,85.86 C141.235,88.887 138.036,92.02 135.258,95.13 C135.438,95.501 135.75,95.857 136.117,96.04 C136.23,95.286 136.652,94.614 136.722,93.825 C137.468,92.786 138.62,93.446 139.593,93.669 C141.109,93.317 142.534,94.021 144.085,93.997 C145.23,94.552 145.327,96.013 146.374,96.579 C146.655,96.981 146.429,97.47 146.05,97.786 C146.374,100.157 147.503,97.149 148.71,97.724 C149.21,97.912 149.847,97.845 150.218,98.38 C150.409,99.364 151.616,99.185 151.679,100.122 C151.581,100.591 151.077,100.724 150.741,100.985 C151.046,101.926 149.788,102.528 150.218,103.54 C152.054,103.888 152.12,101.763 152.968,100.821 C152.499,99.184 152.148,97.497 151.21,96.04 C150.171,95.825 149.542,94.583 148.487,94.368 C146.461,93.566 148.805,92.309 148.539,91.098" id="Path" fill="#0063AC"></path>
            <path d="M120.313,157.184 C122.661,156.391 125.383,156.512 127.915,156.102 C127.415,155.911 126.899,155.797 126.517,155.282 C125.033,155.184 124.329,153.645 123.869,152.458 C123.642,151.618 124.221,150.919 124.564,150.185 C123.939,148.892 121.97,149.826 120.822,149.365 C120.51,149.107 120.283,148.724 119.849,148.658 L120.314,149.365 C120.313,151.961 120.633,154.617 120.313,157.184" id="Path" fill="#0063AC"></path>
            <path d="M122.352,132.492 C123.172,132.648 122.59,133.543 123.196,133.863 C124.489,133.441 125.485,134.961 126.516,134.011 C126.461,132.523 128.145,132.648 129.055,132.269 C130.489,131.417 132.094,130.277 131.938,128.378 L131.696,128.101 C130.719,128.101 130.219,128.855 129.508,129.453 C128.602,129.969 128.156,128.504 127.438,128.855 C127.469,129.011 127.629,129.082 127.766,129.136 C127.938,129.366 128.008,129.835 127.766,130.066 C126.68,131.043 126.176,129.578 125.157,129.671 L125.157,130.066 C125.196,130.277 125.098,130.628 124.79,130.496 C124.142,129.453 122.849,129.836 122.212,128.926 C121.814,128.703 121.423,128.985 121.142,129.235 C120.923,129.715 119.908,129.176 120.158,130.005 C119.377,130.278 119.287,131.13 118.713,131.642 C117.717,131.474 117.291,132.591 116.361,132.568 C116.455,132.752 116.361,133.072 116.638,133.095 C117.22,133.349 117.786,133.404 118.49,133.318 C119.43,131.805 121.02,133.07 122.352,132.492" id="Path" fill="#0063AC"></path>
            <path d="M131.703,120.129 C131.75,120.598 131.82,121.231 132.219,121.633 C133.453,121.453 132.926,123.156 134.055,123.008 C134.696,122.817 134.098,122.278 134.274,121.867 C134.098,120.914 133.172,120.816 132.532,120.246 C132.462,120.062 132.602,119.902 132.68,119.75 C132.219,119.492 132,119.781 131.703,120.129" id="Path" fill="#0063AC"></path>
            <path d="M130.266,76.449 C127.055,75.316 123.555,74.832 120.063,74.308 L120.383,74.999 L120.317,83.569 L121.149,83.409 C126.391,84.132 131.196,85.819 135.352,89.198 L135.579,89.87 C136.981,87.87 139.141,86.159 140.813,84.268 L142.407,83.346 L141.645,83.034 C138.156,80.125 134.379,77.918 130.266,76.449" id="Path" fill="#0063AC"></path>
            <path d="M71.402,111.77 L72.093,117.598 C72.366,119.84 73.359,121.993 73.288,124.207 C73.632,123.734 73.417,122.777 74.28,122.684 C73.921,121.993 74.94,121.395 74.366,120.789 C74.647,119.273 74.827,117.715 76.171,116.617 C77.796,116.547 77.913,114.418 79.53,114.324 C80.35,114.293 80.858,115.402 81.221,115.781 C80.194,114.558 80.248,112.531 80.506,111.133 L79.811,111.457 C76.866,111.391 73.803,111.629 71.014,111.23 L71.402,111.77 Z" id="Path" fill="#0063AC"></path>
            <path d="M128.145,126.578 C128.895,125.789 130.493,125.824 130.563,124.687 C129.458,124.511 128.895,125.121 128.145,125.726 C128.039,125.965 127.695,126.41 128.145,126.578" id="Path" fill="#0063AC"></path>
            <path d="M148.273,110.699 L149.242,111.672 C150.219,112.336 149.566,113.754 150.601,114.328 C151.828,114.957 152.281,116.387 152.828,117.461 C153.012,117.18 153.012,116.832 153.109,116.543 C153.547,114.805 153.48,112.848 154.019,111.137 C152.117,111.23 149.93,111.418 148.273,110.699" id="Path" fill="#0063AC"></path>
            <path d="M135.508,132.871 C136.582,133.152 137.32,134.492 138.668,134.078 C139.813,133.441 141.711,134.457 142.469,133.254 C142.348,132.082 143.36,131.227 143.871,130.219 L144.242,130.121 C144.879,130.781 144.844,131.773 145.133,132.492 C146.008,131.547 146.707,130.496 147.504,129.523 C149.59,126.48 151.371,123.222 152.121,119.75 C151.273,119.777 150.414,119.922 149.633,120.18 C148.711,120.129 147.598,120.66 146.805,120.024 C146.532,119.778 146.332,120.157 146.375,120.411 C146.047,120.884 145.727,121.477 145,121.263 C144.434,121.009 144.434,120.411 144.242,119.966 C144.273,120.318 144.152,120.63 144.082,120.946 C143.426,121.634 143.191,122.309 142.727,123.063 C142.063,123.793 140.989,123.536 140.286,124.137 C140.157,125.66 138.481,125.336 137.532,125.825 C137.47,126.009 137.688,126.036 137.782,126.2 C138.235,126.325 138.833,126.325 139.149,125.88 C140.477,126.235 140.192,124.56 140.965,123.982 C141.625,123.888 142.258,123.322 142.938,123.771 C143.649,124.615 143.801,125.849 143.704,126.959 C142.938,127.713 143.333,128.951 142.79,129.838 C142.911,130.889 141.645,131.358 141.81,132.404 C141.408,132.873 140.697,132.947 140.064,132.947 C137.58,131.998 134.939,131.388 132.154,131.131 C131.9,131.229 131.744,131.451 131.779,131.74 C132.926,132.34 134.309,132.371 135.508,132.871" id="Path" fill="#0063AC"></path>
            <path d="M116.637,160.598 L116.965,160.118 L115.981,160.376 C103.641,159.528 92.727,155.165 83.711,146.446 L83.609,146.829 L77.093,153.38 C86.96,161.931 98.101,167.439 110.82,169.181 C112.851,169.521 115.172,169.333 117.117,169.935 L116.637,169.181 L116.637,160.598 L116.637,160.598 Z" id="Path" fill="#0063AC"></path>
            <path d="M103.887,126.48 C107.285,129.277 111.078,131.003 115.289,131.738 C115.508,130.886 115.164,129.812 115.605,129.082 C115.921,128.379 116.765,128.41 117.41,128.531 C117.785,128.504 118.019,128.035 117.785,127.707 C116.871,127.531 117.293,126.516 116.961,125.941 C117.008,125.629 117.539,125.691 117.41,125.273 C116.765,124.769 117.719,124.207 117.187,123.668 C117.339,123.559 117.457,123.371 117.617,123.266 C115.699,124.071 113.66,122.899 111.969,122.149 C111.133,121.661 109.938,121.204 109.758,120.18 C108.398,122.395 105.785,124.422 103.887,126.48" id="Path" fill="#0063AC"></path>
            <path d="M100.633,116.613 C100.324,116.449 100.281,116.488 100.031,116.761 C99.879,116.761 99.687,116.8 99.562,116.706 C99.562,114.901 97.535,115.979 96.781,115.038 C97.664,116.667 98.14,118.542 99.047,120.179 C99.625,121.636 100.883,122.781 101.461,124.206 C102.059,123.065 103.266,122.147 104.125,121.101 C104.187,120.632 104.086,120.214 103.816,119.871 C103.546,119.199 103.804,118.258 103.281,117.691 C102.476,117.976 103.582,118.793 103.226,119.277 C102.882,119.496 102.499,119.199 102.476,118.886 C101.742,118.769 101.171,118.124 100.945,117.46 C101.555,117.082 100.793,116.922 100.633,116.613" id="Path" fill="#0063AC"></path>
            <path d="M106.711,117.531 C106.512,118.316 105.984,119.008 105.406,119.582 L105.504,119.644 C106.266,119.101 106.816,118.132 107.789,118.07 L106.711,117.531 Z" id="Path" fill="#0063AC"></path>
            <path d="M115.891,148.289 C108.196,147.906 101.461,145.094 95.477,140.621 C95.665,141.379 96.672,141.871 96.391,142.812 C95.852,143.675 94.746,143.691 93.868,143.675 C92.052,143.382 90.72,144.749 89.028,144.929 C87.469,145.409 86.93,143.507 85.512,143.675 C94.301,151.351 104.36,156.159 116.145,156.796 L117.032,157.398 L116.641,156.324 L116.641,147.965 L115.891,148.289 Z" id="Path" fill="#0063AC"></path>
            <path d="M81.715,144.172 C80.633,143.41 79.676,142.184 78.774,141.129 C77.727,140.848 76.641,140.121 76.11,139.113 C75.798,138.754 76.087,138.136 75.739,137.879 L75.341,138.352 C74.236,138.887 73.841,137.747 73.079,137.278 C72.087,136.747 72.575,134.872 71.235,135.216 C70.735,135.193 70.571,134.622 70.255,134.31 C69.032,134.427 68.708,133.068 68.04,132.408 C67.911,132.693 68.04,133.068 67.665,133.256 C66.392,133.545 65.962,131.994 65.095,131.354 C64.868,131.452 64.72,131.717 64.392,131.647 C63.646,130.983 63.134,130.026 63.095,128.991 C62.056,127.803 62.533,125.948 62.728,124.518 C62.919,124.139 63.462,123.924 63.353,123.452 C63.646,122.784 64.345,122.718 65.009,122.686 C65.263,122.819 65.517,123.065 65.634,123.295 C66.048,123.037 66.974,123.318 66.618,122.4 C67.149,121.931 67.954,121.763 68.684,121.638 C69.188,122.279 69.434,123.005 70.11,123.599 L69.669,122.908 C68.907,119.806 68.31,116.646 68.134,113.287 C68.169,113.099 67.743,113.006 67.982,112.822 L68.041,112.912 C68.08,112.213 68.025,111.611 68.135,111.139 L67.283,111.459 L58.486,111.397 C58.994,121.514 61.677,130.725 66.244,139.182 C68.486,143.354 71.779,147.116 74.65,151.014 L80.947,144.491 L81.715,144.172 Z" id="Path" fill="#0063AC"></path>
            <path d="M91.836,70.285 C89.871,71.644 88.07,73.418 86.047,74.621 C88.395,76.101 90.32,78.582 92.438,80.531 L92.661,81.136 C98.048,75.98 104.591,72.976 111.657,71.519 C113.321,71.351 115.009,70.789 116.637,71.144 C116.524,68.128 116.258,64.996 116.571,62.015 C107.402,62.562 99.195,65.344 91.836,70.285" id="Path" fill="#0063AC"></path>
            <path d="M84.305,103.32 C83.961,104.84 84.153,106.605 83.543,108.035 C84.664,107.519 86.266,107.719 87.5,107.875 C86.781,107.496 87.387,106.582 86.961,106.066 C86.867,105.289 86.734,104.304 87.5,103.789 C87.414,102.492 88.793,101.828 88.934,100.656 C89.274,99.332 90.789,100.226 91.524,99.523 C92.001,99.265 91.586,98.828 91.586,98.48 C92.219,97.613 93.203,97.656 93.953,97.175 C94.5,96.355 95.195,95.468 96.078,94.976 C97.98,95.035 98.016,92.371 99.812,92.304 C97.347,90.437 95.003,87.941 92.82,85.781 C88.461,91.008 85.477,96.762 84.305,103.32" id="Path" fill="#0063AC"></path>
            <path d="M85.512,116.16 C85.602,115.59 84.758,115.441 84.836,114.871 C85.445,113.695 84.867,111.801 86.426,111.293 C85.324,111.481 84.34,111.703 83.399,111.012 L83.848,111.77 C83.922,113.856 84.758,115.848 84.305,117.973 C84.664,117.371 84.758,116.547 85.512,116.16" id="Path" fill="#0063AC"></path>
            <polygon id="Path" fill="#0063AC" points="94.234 139.004 94.117 138.789 94.234 139.18"></polygon>
            <path d="M83.707,77.27 L80.285,81.622 C74.687,89.302 72.023,98.192 71.234,107.88 L79.91,107.716 L80.73,108.04 C80.382,107.806 80.468,107.435 80.351,107.122 C81.054,98.099 84.21,90.063 90.437,83.349 C88.039,81.271 85.789,79.052 83.753,76.677 L83.707,77.27 Z" id="Path" fill="#0063AC"></path>
            <path d="M110.437,136.449 C111.132,135.711 111.953,135.219 112.812,134.902 C110.003,135.476 107.523,133.449 105.128,132.34 C103.765,131.324 101.991,130.5 101.171,128.985 C99.296,131.262 97.089,133.633 94.882,135.438 C95.847,135.5 96.398,136.583 97.218,137.059 C101.968,141.008 107.882,142.914 113.378,144.27 L111.878,143.567 C110.73,142.278 109.112,140.755 109.054,138.958 C110.191,138.566 110.063,137.309 110.437,136.449" id="Path" fill="#0063AC"></path>
            <path d="M88.793,111.293 L88.547,112.965 C88.16,113.953 86.93,113.215 86.367,113.891 C85.957,114.52 86.383,115.184 86.734,115.688 C85.851,117.715 88.742,118.356 88.6990005,120.184 C89.59,121.325 88.578,122.965 89.847,123.981 C90.124,126.04 89.562,128.829 91.367,130.438 L91.687,132.407 C92.054,133.762 90.062,133.407 90.32,134.618 C90.715,134.427 90.789,134.938 90.828,135.059 L90.828,134.997 C93.266,132.185 96.078,129.208 98.953,126.712 L97.758,125.505 C95.508,122.146 93.738,118.567 92.883,114.646 L91.969,114.177 C91.93,115.185 91.453,115.978 91.524,116.989 L91.208,117.368 C90.548,117.345 90.126,116.802 89.563,116.45 C89.426,116.102 89.079,115.54 89.625,115.255 C89.941,115.228 90.156,115.317 90.391,115.466 C90.668,115.122 90.547,114.622 90.715,114.177 C90.789,113.415 90.125,112.72 90.598,112.052 C91.207,111.993 91.653,112.72 91.899,113.126 C92.508,113.314 92.985,112.821 93.485,112.591 C93.485,112.052 94.235,111.321 93.415,111.013 C93.868,109.775 93.548,108.478 93.345,107.279 C93.013,106.232 91.837,106.42 90.986,106.517 C88.42,107.333 91.4,109.271 90.767,110.849 C90.406,111.77 89.461,110.918 88.793,111.293" id="Path" fill="#0063AC"></path>
            <path d="M169.898,111.137 L169.371,110.754 L169.68,111.609 C169.184,122.144 165.668,131.445 159.641,139.722 C158.485,141.105 157.391,142.808 155.918,143.792 C158.332,145.687 160.992,148.538 162.973,150.73 L163.219,150.253 C172.91,139.206 178.414,126.409 179.016,111.608 L179.403,110.85 L178.93,111.08 L169.898,111.137 Z" id="Path" fill="#0063AC"></path>
            <path d="M84.152,72.395 L84.304,71.957 C93.546,63.543 104.304,58.918 116.636,58.348 L116.359,57.594 L116.261,49.989 L116.523,49.11 C103.796,49.614 92.5,53.95 82.484,61.165 C80.543,62.497 78.836,64.517 76.875,65.665 L77.145,65.665 C79.656,67.488 82.031,70.121 84.152,72.395" id="Path" fill="#0063AC"></path>
            <path d="M116.211,74.551 C108.172,75.129 101.195,78.473 95.094,83.516 C97.508,85.176 99.649,87.871 101.836,89.797 C101.992,89.586 102.156,89.363 102.313,89.106 C105.321,86.965 108.434,85.004 111.973,84.114 C113.539,83.95 115.102,83.2 116.743,83.567 C116.403,80.59 116.403,77.309 116.743,74.239 L116.211,74.551 Z" id="Path" fill="#0063AC"></path>
            <path d="M116.637,87.082 C111.551,87.75 106.864,89.492 103.137,93.445 L103.821,93.445 C104.591,94.207 105.813,94.047 106.395,95.066 C106.68,95.636 105.852,95.57 105.883,96.039 C106.047,96.176 106.274,96.199 106.395,96.418 C106.993,96.629 106.864,96.074 107.098,95.824 C107.875,95.035 108.012,96.582 108.766,96.582 C109.305,96.23 110.063,96.199 110.438,96.801 C110.954,96.356 112.032,96.762 112.188,95.953 C113.18,94.902 112.633,93.297 114.086,92.629 C114.594,92.902 114.055,93.387 114.246,93.832 C115.219,94.238 116.328,93 117.117,93.992 C116.402,91.93 116.57,89.359 116.637,87.082" id="Path" fill="#0063AC"></path>
            <path d="M116.965,101.266 C116.024,102.84 114.438,103.192 112.953,103.637 C112.535,104.141 112.633,105.254 111.656,105.149 C111.34,105.856 110.261,106.262 110.672,107.278 C110.156,108.348 110.402,109.747 110.133,110.919 C108.266,112.091 108.789,109.364 107.86,108.794 L107.524,109.333 C107.169,109.427 106.911,109.204 106.649,108.958 C106.368,108.841 105.883,108.755 105.633,109.02 C105.223,109.719 104.59,110.286 104.75,111.231 C104.562,111.793 103.609,111.606 103.742,112.215 C104.789,112.184 105.914,111.996 106.933,111.77 C107.671,111.958 108.265,111.422 108.995,111.395 C109.233,111.52 109.546,111.77 109.436,112.149 L109.694,112.149 C110.19,111.77 110.401,111.188 110.19,110.637 C110.26,109.965 110.987,109.965 111.42,109.774 C111.83,109.965 111.576,110.372 111.654,110.704 C113.072,111.231 111.302,112.278 111.103,113.032 C110.728,113.637 111.103,115.001 109.908,114.809 C109.693,114.747 109.545,114.52 109.599,114.262 L109.435,114.262 C109.404,114.778 109.787,115.465 110.287,115.688 C111.162,114.961 111.197,113.727 112.482,113.567 C113.13,112.876 112.185,111.794 113.177,111.231 C114.818,111.188 116.568,110.501 117.88,111.825 C117.782,112.395 117.571,112.665 118.044,113.13 C117.716,113.857 117.513,114.646 116.903,115.255 C117.055,115.661 116.938,116.165 116.567,116.45 C116.137,118.384 113.926,117.458 112.629,118.134 C114.621,119.646 117.027,120.212 119.613,120.029 C120.972,119.967 120.379,118.287 121.074,117.533 C121.512,115.318 123.547,116.83 124.785,116.228 C125.254,115.287 125.73,114.365 125.847,113.29 C125.066,112.786 124.753,111.825 124.999,110.919 C124.464,110.189 124.519,108.857 123.339,108.728 C123.171,108.478 123.312,108.15 123.476,107.978 C123.453,107.279 124.136,107.056 124.331,106.517 C123.612,106.044 123.8,104.997 123.854,104.388 C122.612,104.747 122.495,103.134 121.577,102.786 C121.354,102.052 120.565,101.927 119.936,101.806 C118.413,102.533 118.166,100.661 117.026,100.22 C116.901,99.872 116.631,99.365 117.026,99.083 C117.596,98.599 118.346,99.017 119.01,98.978 L118.483,98.697 C117.979,98.131 116.866,98.482 116.206,98.697 C116.844,99.332 116.57,100.473 116.965,101.266" id="Path" fill="#0063AC"></path>
            <path d="M68.195,107.977 L67.98,106.735 C68.585,96.637 71.804,87.653 77.476,79.622 C78.89,78.001 79.937,75.985 81.714,74.774 C79.655,72.848 77.515,70.598 75.343,68.481 L75.128,67.622 C66.101,77.653 60.546,89.106 58.929,102.181 C58.57,104.083 58.812,106.04 58.429,107.978 C61.586,107.719 65.027,107.719 68.195,107.977" id="Path" fill="#0063AC"></path>
            <path d="M153.809,145.793 C152.907,147.527 150.95,148.629 149.461,149.969 C147.406,152.028 144.055,152.465 143.004,155.446 C141.902,156.446 141.527,158.032 139.981,158.598 C139.395,160.121 137.782,160.028 136.868,161.129 C134.216,163.504 132.501,159.617 130.095,159.149 L125.258,160 C123.574,160 121.899,160.598 120.313,160.059 C120.547,163.278 120.547,166.762 120.313,169.997 L120.915,169.614 C136.173,168.958 149.333,163.161 160.63,152.907 L153.962,146.544 L153.809,145.793 Z" id="Path" fill="#0063AC"></path>
            <path d="M120.156,57.52 C120.156,57.239 120.281,56.993 120.453,56.778 C120.898,56.512 121.258,56.903 121.441,57.208 C121.488,57.657 121.679,58.423 121.3,58.677 C121.679,58.732 121.882,58.45 122.21,58.45 C129.456,58.989 136.171,61.102 142.187,64.52 L142.187,64.368 C143.425,63.763 144.999,62.973 146.265,64.048 C147.788,63.482 148.066,65.345 149.304,65.564 C150.796,66.451 152.476,68.107 152.663,69.841 C152.936,70.419 153.831,70.818 153.96,71.427 C154.976,69.275 156.995,67.747 158.749,65.884 L159.808,65.435 C150.257,56.33 138.902,51.294 126.226,49.556 C124.218,49.208 121.984,49.396 120.062,48.794 C120.453,51.293 120.34,54.715 120.156,57.52" id="Path" fill="#0063AC"></path>
            <path d="M120.156,71.137 C121.359,70.719 122.59,71.235 123.797,71.266 C130,72.278 135.867,74.266 140.813,78.098 C140.227,77.461 139.493,76.743 139.36,75.817 C139.469,75.692 139.587,75.665 139.747,75.692 C139.813,74.708 138.767,74.204 138.622,73.317 C138.767,73.137 138.997,72.946 139.313,73.036 C140.379,74.052 141.29,75.161 142.09,76.286 C142.793,76.009 143.356,76.454 143.871,76.825 C144.781,77.364 144.219,78.544 144.922,79.173 C145.039,81.044 147.317,82.091 147.195,83.95 C147.211,84.391 147.757,84.044 147.949,84.274 L149.847,86.606 C149.495,87.059 149.788,87.598 150.175,87.895 C151.019,88.293 151.499,87.207 152.335,87.368 C153.569,88.067 152.155,88.888 152.273,89.645 C152.753,89.672 153.363,89.27 153.742,89.743 C153.902,90.442 153.172,90.884 152.871,91.329 C152.871,92.02 153.453,91.868 153.961,92.02 C154.523,91.993 154.883,92.692 154.723,93.165 C156.305,94.81 154.243,96.579 155.004,98.325 C155.5,99.454 154.883,100.563 154.172,101.423 C154.211,102.818 152.938,103.665 152.449,104.841 L150.828,105.153 C149.965,106.005 151.562,107.055 150.695,107.594 L154.242,107.66 L153.855,107.285 C153.363,105.894 153.476,104.012 154.335,102.785 C154.882,101.644 155.003,100.277 156.015,99.301 C156.234,99.242 156.644,98.828 156.835,99.301 C156.905,100.375 156.808,101.606 156.304,102.559 C157.32,104.012 157.183,105.914 157.277,107.715 C160.414,107.524 163.484,107.469 166.558,107.496 L166.277,106.891 C165.797,101.043 164.601,95.496 162.156,90.504 C161.492,90.543 161.015,91.07 160.258,90.883 C160.008,90.793 159.844,90.543 159.879,90.254 C158.613,89.051 157.813,87.469 156.406,86.383 C154.769,86.547 154.047,84.676 152.59,84.488 C151.301,83.949 152.192,81.859 150.317,82.437 C149.403,82.05 148.508,81.355 148.325,80.312 C148.325,78.667 148.009,76.89 146.532,75.816 C145.384,75.406 144.923,76.921 143.766,76.675 C143.141,76.351 143.426,75.534 143.219,74.999 C143.004,74.519 142.469,74.175 142.563,73.538 C144.047,71.581 140.758,71.616 141.485,69.679 C141.29,68.284 139.883,67.741 139.149,66.644 C134.239,64.425 129.337,62.917 123.797,62.246 C122.438,62.051 121.18,62.34 120.008,61.711 L120.313,62.301 C120.246,65.246 120.453,68.379 120.156,71.137" id="Path" fill="#0063AC"></path>
            <path d="M154.77,74.395 C155.446,74.551 155.637,75.34 156.086,75.817 C158.383,77.051 158.984,79.524 161.016,80.911 C162.157,83.298 164.782,85.122 164.875,87.845 C167.625,93.927 169.492,100.353 169.68,107.505 L169.438,107.876 C169.719,107.876 169.969,107.751 170.188,107.599 L179.309,107.431 C178.711,106.548 178.961,105.255 178.797,104.177 C177.594,90.095 171.586,78.032 162.156,67.404 C160.406,69.748 158.039,71.927 155.859,74.174 L154.77,74.395 Z" id="Path" fill="#0063AC"></path>
            <path d="M121.441,56.016 C121.718,55.512 122.445,55.692 122.824,55.852 L127.375,53.895 C129.203,54.047 131.227,54.27 132.316,55.793 L132.316,56.016 C131.171,56.957 129.718,57.715 128.203,57.082 C126.109,57.496 123.195,58.699 121.512,56.551 C121.441,56.395 121.254,56.168 121.441,56.016" id="Path" fill="#FFFFFF"></path>
            <path d="M148.641,61.766 C149.266,61.965 149.848,62.246 150.071,62.918 C149.895,63.625 150.739,64.238 150.223,64.805 C148.508,65.25 148.352,63.325 147.032,62.848 C146.844,62.59 146.782,62.27 146.805,61.926 C147.41,61.199 147.973,62.406 148.641,61.766" id="Path" fill="#FFFFFF"></path>
        </g>
    </g>
</svg>